<svg width="172" height="173" viewBox="0 0 172 173" fill="none" xmlns="http://www.w3.org/2000/svg">
<rect x="6" y="6.8974" width="160" height="160" rx="16" stroke="#BAB3F3" stroke-width="12"/>
<path fill-rule="evenodd" clip-rule="evenodd" d="M110.749 96.1446C124.417 82.4763 124.417 60.3155 110.749 46.6471C97.0804 32.9788 74.9196 32.9788 61.2513 46.6471C47.5829 60.3155 47.5829 82.4763 61.2513 96.1446C62.1867 97.0801 63.1129 97.967 64.0121 98.8281C69.2049 103.801 73.4996 107.913 73.4996 115.553V118.908H98.4996V115.553C98.4996 107.914 102.794 103.801 107.987 98.8291C108.886 97.9677 109.813 97.0805 110.749 96.1446Z" fill="#FFED7B"/>
<path d="M98.4996 124.899C98.4996 128.214 97.1826 131.394 94.8384 133.738C92.4942 136.082 89.3148 137.399 85.9996 137.399C82.6844 137.399 79.505 136.082 77.1608 133.738C74.8166 131.394 73.4996 128.214 73.4996 124.899M98.4996 124.899C98.4996 124.899 98.4996 123.67 98.4996 118.908M98.4996 124.899V118.908M73.4996 124.899C73.4996 124.899 73.4996 123.805 73.4996 118.908M73.4996 124.899L73.4996 118.908M73.4996 115.553C73.4996 116.596 73.4996 117.771 73.4996 118.908M73.4996 115.553V118.908M73.4996 115.553C73.4996 107.913 69.2049 103.801 64.0121 98.8281C63.1129 97.967 62.1867 97.0801 61.2513 96.1446C47.5829 82.4763 47.5829 60.3155 61.2513 46.6471C74.9196 32.9788 97.0804 32.9788 110.749 46.6471C124.417 60.3155 124.417 82.4763 110.749 96.1446C109.813 97.0805 108.886 97.9677 107.987 98.8291C102.794 103.801 98.4996 107.914 98.4996 115.553M98.4996 115.553C98.4996 116.568 98.4996 117.748 98.4996 118.908M98.4996 115.553V118.908M73.4996 118.908H98.4996" stroke="#FFB760" stroke-width="10"/>
</svg>
