<svg width="776" height="172" viewBox="0 0 776 172" fill="none" xmlns="http://www.w3.org/2000/svg">
<path d="M221.312 132V39.875H239.25V132H221.312Z" fill="#173667"/>
<path d="M317.625 133C314.708 132 312.25 130.896 310.25 129.688C308.292 128.479 306.75 127.167 305.625 125.75C304.542 124.333 303.833 122.75 303.5 121L305.5 122.25H299.688L302.625 114.438V78.125L299.5 71.25H301.188V35.75H318.438V110.062C318.438 112.604 318.833 114.438 319.625 115.562C320.417 116.646 321.812 117.583 323.812 118.375L317.625 133ZM281.688 133C277.979 133 274.354 132.271 270.812 130.812C267.271 129.354 264.083 127.188 261.25 124.312C258.458 121.396 256.229 117.792 254.562 113.5C252.938 109.208 252.146 104.25 252.188 98.625C252.104 91.125 253.479 84.7917 256.312 79.625C259.188 74.4583 262.917 70.5625 267.5 67.9375C272.083 65.2708 276.938 63.9375 282.062 63.9375C287.771 63.9375 292.812 65.4375 297.188 68.4375C301.562 71.4375 304.979 75.5208 307.438 80.6875C309.938 85.8542 311.208 91.6458 311.25 98.0625C311.208 104.521 309.896 110.417 307.312 115.75C304.729 121.042 301.208 125.25 296.75 128.375C292.333 131.458 287.312 133 281.688 133ZM285.5 118.375C288.708 118.333 291.542 117.479 294 115.812C296.5 114.104 298.458 111.75 299.875 108.75C301.333 105.75 302.062 102.271 302.062 98.3125C302.062 94.1875 301.333 90.6667 299.875 87.75C298.417 84.7917 296.458 82.5208 294 80.9375C291.583 79.3542 288.854 78.5833 285.812 78.625C282.521 78.5833 279.604 79.375 277.062 81C274.562 82.625 272.604 84.9167 271.188 87.875C269.771 90.8333 269.083 94.3125 269.125 98.3125C269.083 102.271 269.75 105.75 271.125 108.75C272.542 111.75 274.479 114.104 276.938 115.812C279.438 117.479 282.292 118.333 285.5 118.375Z" fill="#173667"/>
<path d="M365.5 133C358.458 133 352.333 131.542 347.125 128.625C341.917 125.667 337.875 121.604 335 116.438C332.167 111.229 330.75 105.292 330.75 98.625C330.75 91.5833 332.208 85.5 335.125 80.375C338.083 75.2083 342 71.2083 346.875 68.375C351.792 65.5417 357.167 64.125 363 64.125C368.542 64.125 373.604 65.4167 378.188 68C382.812 70.5417 386.521 74.1458 389.312 78.8125C392.104 83.4375 393.5 88.9167 393.5 95.25C393.5 96.7083 393.417 98.1042 393.25 99.4375C393.083 100.771 392.833 102.333 392.5 104.125H343.625V92.625H377.625C377.625 89.75 377 87.2292 375.75 85.0625C374.5 82.8958 372.771 81.2083 370.562 80C368.396 78.75 365.875 78.125 363 78.125C359.5 78.125 356.458 78.9792 353.875 80.6875C351.333 82.3542 349.354 84.6875 347.938 87.6875C346.562 90.6875 345.875 94.1667 345.875 98.125C345.875 102.25 346.646 105.875 348.188 109C349.729 112.125 351.938 114.583 354.812 116.375C357.688 118.125 361.083 119 365 119C367.208 119 369.354 118.75 371.438 118.25C373.521 117.708 375.458 117 377.25 116.125C379.042 115.25 380.583 114.292 381.875 113.25L387.5 126.875C384.833 128.708 381.583 130.188 377.75 131.312C373.958 132.438 369.875 133 365.5 133Z" fill="#173667"/>
<path d="M422.75 133C418.25 133 414.292 132.104 410.875 130.312C407.458 128.479 404.792 126.021 402.875 122.938C400.958 119.854 400 116.375 400 112.5C400 108.5 401.083 104.979 403.25 101.938C405.458 98.8542 408.729 96.4583 413.062 94.75C417.396 93 422.75 92.125 429.125 92.125H444V103.5H429.25C425.25 103.5 422.125 104.167 419.875 105.5C417.625 106.833 416.5 108.917 416.5 111.75C416.5 113.458 416.917 114.917 417.75 116.125C418.625 117.292 419.833 118.188 421.375 118.812C422.917 119.438 424.667 119.75 426.625 119.75C428.417 119.75 430.5 119.354 432.875 118.562C435.25 117.771 437.312 116.5 439.062 114.75C440.854 112.958 441.75 110.625 441.75 107.75V100.875L440.625 97.5V88.875C440.625 87.4167 440.417 86.0625 440 84.8125C439.583 83.5625 438.896 82.4583 437.938 81.5C437.021 80.5417 435.792 79.8125 434.25 79.3125C432.75 78.7708 430.917 78.5 428.75 78.5C426.625 78.5 424.396 78.7292 422.062 79.1875C419.729 79.6458 417.5 80.2708 415.375 81.0625C413.292 81.8125 411.5 82.6667 410 83.625L404.375 70.25C406.083 69.25 408.312 68.2917 411.062 67.375C413.812 66.4167 416.896 65.6458 420.312 65.0625C423.771 64.4375 427.375 64.125 431.125 64.125C437.25 64.125 442.062 64.9583 445.562 66.625C449.062 68.2917 451.625 70.4167 453.25 73C454.917 75.5417 455.979 78.2083 456.438 81C456.896 83.7917 457.125 86.3333 457.125 88.625V109.5C457.125 112.042 457.375 113.958 457.875 115.25C458.417 116.5 459.458 117.375 461 117.875L462.5 118.375L456.25 133L454.25 132.25C450.583 130.875 447.917 129.271 446.25 127.438C444.583 125.562 443.625 123.708 443.375 121.875L446.625 124H441.125L444.875 122.25C443.458 125.083 440.708 127.583 436.625 129.75C432.583 131.917 427.958 133 422.75 133Z" fill="#173667"/>
<path d="M500.875 132L462.938 39.875H482.562L498 80.9375L508.062 107.438H508.562L518.438 80.9375L533.938 39.875H553.625L515.938 132H500.875Z" fill="#173667"/>
<path d="M574.625 133C570.125 133 566.167 132.104 562.75 130.312C559.333 128.479 556.667 126.021 554.75 122.938C552.833 119.854 551.875 116.375 551.875 112.5C551.875 108.5 552.958 104.979 555.125 101.938C557.333 98.8542 560.604 96.4583 564.938 94.75C569.271 93 574.625 92.125 581 92.125H595.875V103.5H581.125C577.125 103.5 574 104.167 571.75 105.5C569.5 106.833 568.375 108.917 568.375 111.75C568.375 113.458 568.792 114.917 569.625 116.125C570.5 117.292 571.708 118.188 573.25 118.812C574.792 119.438 576.542 119.75 578.5 119.75C580.292 119.75 582.375 119.354 584.75 118.562C587.125 117.771 589.188 116.5 590.938 114.75C592.729 112.958 593.625 110.625 593.625 107.75V100.875L592.5 97.5V88.875C592.5 87.4167 592.292 86.0625 591.875 84.8125C591.458 83.5625 590.771 82.4583 589.812 81.5C588.896 80.5417 587.667 79.8125 586.125 79.3125C584.625 78.7708 582.792 78.5 580.625 78.5C578.5 78.5 576.271 78.7292 573.938 79.1875C571.604 79.6458 569.375 80.2708 567.25 81.0625C565.167 81.8125 563.375 82.6667 561.875 83.625L556.25 70.25C557.958 69.25 560.188 68.2917 562.938 67.375C565.688 66.4167 568.771 65.6458 572.188 65.0625C575.646 64.4375 579.25 64.125 583 64.125C589.125 64.125 593.938 64.9583 597.438 66.625C600.938 68.2917 603.5 70.4167 605.125 73C606.792 75.5417 607.854 78.2083 608.312 81C608.771 83.7917 609 86.3333 609 88.625V109.5C609 112.042 609.25 113.958 609.75 115.25C610.292 116.5 611.333 117.375 612.875 117.875L614.375 118.375L608.125 133L606.125 132.25C602.458 130.875 599.792 129.271 598.125 127.438C596.458 125.562 595.5 123.708 595.25 121.875L598.5 124H593L596.75 122.25C595.333 125.083 592.583 127.583 588.5 129.75C584.458 131.917 579.833 133 574.625 133Z" fill="#173667"/>
<path d="M648.688 133C643.979 133 639.729 132 635.938 130C632.188 128 629.208 125.062 627 121.188C624.792 117.312 623.688 112.562 623.688 106.938V65.0625H640.938V104.875C640.938 109.25 642.104 112.562 644.438 114.812C646.771 117.021 649.604 118.125 652.938 118.125C655.438 118.125 657.625 117.583 659.5 116.5C661.417 115.375 662.917 113.812 664 111.812C665.083 109.812 665.625 107.5 665.625 104.875V65.0625H682.875V109.812C682.875 112.354 683.229 114.229 683.938 115.438C684.646 116.604 686.083 117.583 688.25 118.375L682.062 133C677.646 131.667 674.333 129.938 672.125 127.812C669.917 125.688 668.792 123.125 668.75 120.125L673.188 124H664.812L673.062 118.875C670.604 122.875 667.312 126.229 663.188 128.938C659.104 131.646 654.271 133 648.688 133Z" fill="#173667"/>
<path d="M715.062 133C711.312 133 708.208 132.208 705.75 130.625C703.333 129 701.5 126.812 700.25 124.062C699.042 121.312 698.438 118.188 698.438 114.688V35.75H715.688V112.625C715.688 113.625 715.792 114.562 716 115.438C716.25 116.271 716.688 116.958 717.312 117.5C717.979 118 718.938 118.25 720.188 118.25C720.812 118.25 721.354 118.208 721.812 118.125C722.271 118 722.688 117.875 723.062 117.75V131.688C721.979 132.062 720.729 132.375 719.312 132.625C717.896 132.875 716.479 133 715.062 133Z" fill="#173667"/>
<path d="M761 133C753.375 133 747.625 130.896 743.75 126.688C739.917 122.438 738 117 738 110.375V45H755.25V109.375C755.25 112.417 755.979 114.604 757.438 115.938C758.938 117.229 760.708 117.875 762.75 117.875C763.708 117.875 764.625 117.771 765.5 117.562C766.417 117.312 767.208 117 767.875 116.625L773.5 130.25C771.75 131.167 769.812 131.854 767.688 132.312C765.604 132.771 763.375 133 761 133ZM727 79V65H771V79H727Z" fill="#173667"/>
<rect x="6" y="6" width="160" height="160" rx="16" stroke="#BAB3F3" stroke-width="12"/>
<path fill-rule="evenodd" clip-rule="evenodd" d="M110.749 95.2473C124.417 81.5789 124.417 59.4181 110.749 45.7498C97.0804 32.0814 74.9196 32.0814 61.2513 45.7498C47.5829 59.4181 47.5829 81.5789 61.2513 95.2473C62.1867 96.1827 63.1129 97.0696 64.0121 97.9307C69.2049 102.903 73.4996 107.016 73.4996 114.655V118.011H98.4996V114.655C98.4996 107.016 102.794 102.904 107.987 97.9318C108.886 97.0703 109.813 96.1831 110.749 95.2473Z" fill="#FFED7B"/>
<path d="M98.4996 124.002C98.4996 127.317 97.1826 130.496 94.8384 132.84C92.4942 135.185 89.3148 136.502 85.9996 136.502C82.6844 136.502 79.505 135.185 77.1608 132.84C74.8166 130.496 73.4996 127.317 73.4996 124.002M98.4996 124.002C98.4996 124.002 98.4996 122.772 98.4996 118.011M98.4996 124.002V118.011M73.4996 124.002C73.4996 124.002 73.4996 122.908 73.4996 118.011M73.4996 124.002L73.4996 118.011M73.4996 114.655C73.4996 115.699 73.4996 116.874 73.4996 118.011M73.4996 114.655V118.011M73.4996 114.655C73.4996 107.016 69.2049 102.903 64.0121 97.9307C63.1129 97.0696 62.1867 96.1827 61.2513 95.2473C47.5829 81.5789 47.5829 59.4181 61.2513 45.7498C74.9196 32.0814 97.0804 32.0814 110.749 45.7498C124.417 59.4181 124.417 81.5789 110.749 95.2473C109.813 96.1831 108.886 97.0703 107.987 97.9318C102.794 102.904 98.4996 107.016 98.4996 114.655M98.4996 114.655C98.4996 115.67 98.4996 116.851 98.4996 118.011M98.4996 114.655V118.011M73.4996 118.011H98.4996" stroke="#FFB760" stroke-width="10"/>
</svg>
