<svg width="565" height="161" viewBox="0 0 565 161" fill="none" xmlns="http://www.w3.org/2000/svg">
<path d="M10.3125 126.897V34.7724H28.25V126.897H10.3125Z" fill="#173667"/>
<path d="M106.625 127.897C103.708 126.897 101.25 125.793 99.25 124.585C97.2917 123.377 95.75 122.064 94.625 120.647C93.5417 119.231 92.8333 117.647 92.5 115.897L94.5 117.147H88.6875L91.625 109.335V73.0224L88.5 66.1474H90.1875V30.6474H107.438V104.96C107.438 107.502 107.833 109.335 108.625 110.46C109.417 111.543 110.812 112.481 112.812 113.272L106.625 127.897ZM70.6875 127.897C66.9792 127.897 63.3542 127.168 59.8125 125.71C56.2708 124.252 53.0833 122.085 50.25 119.21C47.4583 116.293 45.2292 112.689 43.5625 108.397C41.9375 104.106 41.1458 99.1474 41.1875 93.5224C41.1042 86.0224 42.4792 79.6891 45.3125 74.5224C48.1875 69.3557 51.9167 65.4599 56.5 62.8349C61.0833 60.1682 65.9375 58.8349 71.0625 58.8349C76.7708 58.8349 81.8125 60.3349 86.1875 63.3349C90.5625 66.3349 93.9792 70.4182 96.4375 75.5849C98.9375 80.7516 100.208 86.5432 100.25 92.9599C100.208 99.4182 98.8958 105.314 96.3125 110.647C93.7292 115.939 90.2083 120.147 85.75 123.272C81.3333 126.356 76.3125 127.897 70.6875 127.897ZM74.5 113.272C77.7083 113.231 80.5417 112.377 83 110.71C85.5 109.002 87.4583 106.647 88.875 103.647C90.3333 100.647 91.0625 97.1682 91.0625 93.2099C91.0625 89.0849 90.3333 85.5641 88.875 82.6474C87.4167 79.6891 85.4583 77.4182 83 75.8349C80.5833 74.2516 77.8542 73.4807 74.8125 73.5224C71.5208 73.4807 68.6042 74.2724 66.0625 75.8974C63.5625 77.5224 61.6042 79.8141 60.1875 82.7724C58.7708 85.7307 58.0833 89.2099 58.125 93.2099C58.0833 97.1682 58.75 100.647 60.125 103.647C61.5417 106.647 63.4792 109.002 65.9375 110.71C68.4375 112.377 71.2917 113.231 74.5 113.272Z" fill="#173667"/>
<path d="M154.5 127.897C147.458 127.897 141.333 126.439 136.125 123.522C130.917 120.564 126.875 116.502 124 111.335C121.167 106.127 119.75 100.189 119.75 93.5224C119.75 86.4807 121.208 80.3974 124.125 75.2724C127.083 70.1057 131 66.1057 135.875 63.2724C140.792 60.4391 146.167 59.0224 152 59.0224C157.542 59.0224 162.604 60.3141 167.188 62.8974C171.812 65.4391 175.521 69.0432 178.312 73.7099C181.104 78.3349 182.5 83.8141 182.5 90.1474C182.5 91.6057 182.417 93.0016 182.25 94.3349C182.083 95.6682 181.833 97.2307 181.5 99.0224H132.625V87.5224H166.625C166.625 84.6474 166 82.1266 164.75 79.9599C163.5 77.7932 161.771 76.1057 159.562 74.8974C157.396 73.6474 154.875 73.0224 152 73.0224C148.5 73.0224 145.458 73.8766 142.875 75.5849C140.333 77.2516 138.354 79.5849 136.938 82.5849C135.562 85.5849 134.875 89.0641 134.875 93.0224C134.875 97.1474 135.646 100.772 137.188 103.897C138.729 107.022 140.938 109.481 143.812 111.272C146.688 113.022 150.083 113.897 154 113.897C156.208 113.897 158.354 113.647 160.438 113.147C162.521 112.606 164.458 111.897 166.25 111.022C168.042 110.147 169.583 109.189 170.875 108.147L176.5 121.772C173.833 123.606 170.583 125.085 166.75 126.21C162.958 127.335 158.875 127.897 154.5 127.897Z" fill="#173667"/>
<path d="M211.75 127.897C207.25 127.897 203.292 127.002 199.875 125.21C196.458 123.377 193.792 120.918 191.875 117.835C189.958 114.752 189 111.272 189 107.397C189 103.397 190.083 99.8766 192.25 96.8349C194.458 93.7516 197.729 91.3557 202.062 89.6474C206.396 87.8974 211.75 87.0224 218.125 87.0224H233V98.3974H218.25C214.25 98.3974 211.125 99.0641 208.875 100.397C206.625 101.731 205.5 103.814 205.5 106.647C205.5 108.356 205.917 109.814 206.75 111.022C207.625 112.189 208.833 113.085 210.375 113.71C211.917 114.335 213.667 114.647 215.625 114.647C217.417 114.647 219.5 114.252 221.875 113.46C224.25 112.668 226.312 111.397 228.062 109.647C229.854 107.856 230.75 105.522 230.75 102.647V95.7724L229.625 92.3974V83.7724C229.625 82.3141 229.417 80.9599 229 79.7099C228.583 78.4599 227.896 77.3557 226.938 76.3974C226.021 75.4391 224.792 74.7099 223.25 74.2099C221.75 73.6682 219.917 73.3974 217.75 73.3974C215.625 73.3974 213.396 73.6266 211.062 74.0849C208.729 74.5432 206.5 75.1682 204.375 75.9599C202.292 76.7099 200.5 77.5641 199 78.5224L193.375 65.1474C195.083 64.1474 197.312 63.1891 200.062 62.2724C202.812 61.3141 205.896 60.5432 209.312 59.9599C212.771 59.3349 216.375 59.0224 220.125 59.0224C226.25 59.0224 231.062 59.8557 234.562 61.5224C238.062 63.1891 240.625 65.3141 242.25 67.8974C243.917 70.4391 244.979 73.1057 245.438 75.8974C245.896 78.6891 246.125 81.2307 246.125 83.5224V104.397C246.125 106.939 246.375 108.856 246.875 110.147C247.417 111.397 248.458 112.272 250 112.772L251.5 113.272L245.25 127.897L243.25 127.147C239.583 125.772 236.917 124.168 235.25 122.335C233.583 120.46 232.625 118.606 232.375 116.772L235.625 118.897H230.125L233.875 117.147C232.458 119.981 229.708 122.481 225.625 124.647C221.583 126.814 216.958 127.897 211.75 127.897Z" fill="#173667"/>
<path d="M289.875 126.897L251.938 34.7724H271.562L287 75.8349L297.062 102.335H297.562L307.438 75.8349L322.938 34.7724H342.625L304.938 126.897H289.875Z" fill="#173667"/>
<path d="M363.625 127.897C359.125 127.897 355.167 127.002 351.75 125.21C348.333 123.377 345.667 120.918 343.75 117.835C341.833 114.752 340.875 111.272 340.875 107.397C340.875 103.397 341.958 99.8766 344.125 96.8349C346.333 93.7516 349.604 91.3557 353.938 89.6474C358.271 87.8974 363.625 87.0224 370 87.0224H384.875V98.3974H370.125C366.125 98.3974 363 99.0641 360.75 100.397C358.5 101.731 357.375 103.814 357.375 106.647C357.375 108.356 357.792 109.814 358.625 111.022C359.5 112.189 360.708 113.085 362.25 113.71C363.792 114.335 365.542 114.647 367.5 114.647C369.292 114.647 371.375 114.252 373.75 113.46C376.125 112.668 378.188 111.397 379.938 109.647C381.729 107.856 382.625 105.522 382.625 102.647V95.7724L381.5 92.3974V83.7724C381.5 82.3141 381.292 80.9599 380.875 79.7099C380.458 78.4599 379.771 77.3557 378.812 76.3974C377.896 75.4391 376.667 74.7099 375.125 74.2099C373.625 73.6682 371.792 73.3974 369.625 73.3974C367.5 73.3974 365.271 73.6266 362.938 74.0849C360.604 74.5432 358.375 75.1682 356.25 75.9599C354.167 76.7099 352.375 77.5641 350.875 78.5224L345.25 65.1474C346.958 64.1474 349.188 63.1891 351.938 62.2724C354.688 61.3141 357.771 60.5432 361.188 59.9599C364.646 59.3349 368.25 59.0224 372 59.0224C378.125 59.0224 382.938 59.8557 386.438 61.5224C389.938 63.1891 392.5 65.3141 394.125 67.8974C395.792 70.4391 396.854 73.1057 397.312 75.8974C397.771 78.6891 398 81.2307 398 83.5224V104.397C398 106.939 398.25 108.856 398.75 110.147C399.292 111.397 400.333 112.272 401.875 112.772L403.375 113.272L397.125 127.897L395.125 127.147C391.458 125.772 388.792 124.168 387.125 122.335C385.458 120.46 384.5 118.606 384.25 116.772L387.5 118.897H382L385.75 117.147C384.333 119.981 381.583 122.481 377.5 124.647C373.458 126.814 368.833 127.897 363.625 127.897Z" fill="#173667"/>
<path d="M437.688 127.897C432.979 127.897 428.729 126.897 424.938 124.897C421.188 122.897 418.208 119.96 416 116.085C413.792 112.21 412.688 107.46 412.688 101.835V59.9599H429.938V99.7724C429.938 104.147 431.104 107.46 433.438 109.71C435.771 111.918 438.604 113.022 441.938 113.022C444.438 113.022 446.625 112.481 448.5 111.397C450.417 110.272 451.917 108.71 453 106.71C454.083 104.71 454.625 102.397 454.625 99.7724V59.9599H471.875V104.71C471.875 107.252 472.229 109.127 472.938 110.335C473.646 111.502 475.083 112.481 477.25 113.272L471.062 127.897C466.646 126.564 463.333 124.835 461.125 122.71C458.917 120.585 457.792 118.022 457.75 115.022L462.188 118.897H453.812L462.062 113.772C459.604 117.772 456.312 121.127 452.188 123.835C448.104 126.543 443.271 127.897 437.688 127.897Z" fill="#173667"/>
<path d="M504.062 127.897C500.312 127.897 497.208 127.106 494.75 125.522C492.333 123.897 490.5 121.71 489.25 118.96C488.042 116.21 487.438 113.085 487.438 109.585V30.6474H504.688V107.522C504.688 108.522 504.792 109.46 505 110.335C505.25 111.168 505.688 111.856 506.312 112.397C506.979 112.897 507.938 113.147 509.188 113.147C509.812 113.147 510.354 113.106 510.812 113.022C511.271 112.897 511.688 112.772 512.062 112.647V126.585C510.979 126.96 509.729 127.272 508.312 127.522C506.896 127.772 505.479 127.897 504.062 127.897Z" fill="#173667"/>
<path d="M550 127.897C542.375 127.897 536.625 125.793 532.75 121.585C528.917 117.335 527 111.897 527 105.272V39.8974H544.25V104.272C544.25 107.314 544.979 109.502 546.438 110.835C547.938 112.127 549.708 112.772 551.75 112.772C552.708 112.772 553.625 112.668 554.5 112.46C555.417 112.21 556.208 111.897 556.875 111.522L562.5 125.147C560.75 126.064 558.812 126.752 556.688 127.21C554.604 127.668 552.375 127.897 550 127.897ZM516 73.8974V59.8974H560V73.8974H516Z" fill="#173667"/>
</svg>
